<?xml version="1.0" standalone="no"?>
<!DOCTYPE svg PUBLIC "-//W3C//DTD SVG 20010904//EN"
 "http://www.w3.org/TR/2001/REC-SVG-20010904/DTD/svg10.dtd">
<svg version="1.0" xmlns="http://www.w3.org/2000/svg"
 width="512.000000pt" height="512.000000pt" viewBox="0 0 512.000000 512.000000"
 preserveAspectRatio="xMidYMid meet">

<g transform="translate(0.000000,512.000000) scale(0.100000,-0.100000)"
fill="#000000" stroke="none">
<path d="M0 2560 l0 -2560 2560 0 2560 0 0 2560 0 2560 -2560 0 -2560 0 0
-2560z m2915 1710 c78 -154 71 -357 -16 -495 -44 -70 -164 -191 -299 -303
-151 -125 -267 -238 -291 -284 -51 -98 -5 -345 117 -621 l43 -98 -52 44 c-81
69 -204 213 -253 296 -180 307 -89 532 342 846 231 169 267 203 314 298 47 94
74 221 68 309 -2 32 -3 58 -1 58 1 0 14 -22 28 -50z m173 -757 c-141 -116
-281 -260 -312 -320 -30 -60 -35 -133 -12 -188 8 -19 34 -62 57 -97 131 -192
117 -336 -47 -500 -37 -37 -69 -66 -71 -65 -1 2 6 28 17 59 46 131 40 180 -35
278 -106 136 -145 235 -145 364 0 124 75 225 259 348 92 61 350 198 374 198 5
0 -33 -35 -85 -77z m560 -1055 c141 -35 220 -249 142 -384 -41 -72 -119 -138
-225 -189 -93 -45 -240 -98 -256 -93 -5 2 19 23 53 48 91 66 229 207 262 270
53 99 35 179 -54 235 -44 28 -131 55 -176 55 -54 0 -47 15 19 38 99 34 160 39
235 20z m-1678 -71 c-142 -44 -212 -89 -182 -119 37 -37 560 -60 882 -39 210
14 414 37 492 55 78 18 64 2 -46 -50 -178 -84 -377 -126 -688 -145 -444 -26
-823 37 -876 148 -15 31 -15 37 -1 61 8 15 32 36 53 48 65 37 253 70 411 72
l60 1 -105 -32z m-42 -412 c-9 -20 -8 -28 6 -44 31 -35 132 -46 406 -46 259 0
317 5 537 47 l113 21 70 -48 c39 -27 69 -49 67 -51 -6 -6 -319 -65 -421 -79
-397 -55 -766 -21 -884 81 -33 29 -36 34 -27 60 7 20 26 37 65 56 71 36 83 36
68 3z m124 -364 c-3 -20 1 -30 13 -35 41 -15 210 -36 340 -42 123 -6 162 -3
317 21 l177 27 86 -52 c48 -29 83 -56 78 -60 -4 -5 -44 -19 -88 -33 -245 -77
-507 -94 -785 -52 -154 24 -252 60 -284 107 -38 53 0 119 77 137 70 15 74 14
69 -18z m-398 -245 c-96 -25 -162 -54 -183 -80 -21 -25 2 -43 78 -66 178 -53
476 -82 846 -82 358 -1 639 23 915 78 233 46 320 85 307 137 -6 22 -6 22 14
-2 56 -68 -14 -133 -206 -194 -295 -93 -715 -134 -1258 -124 -566 10 -837 61
-892 167 -21 41 -19 58 13 90 37 37 138 67 278 84 167 21 191 18 88 -8z m2123
-233 c-32 -60 -130 -133 -227 -169 -81 -29 -201 -54 -365 -77 -141 -19 -204
-22 -530 -22 -244 0 -407 5 -480 13 -99 12 -357 52 -362 55 -1 1 272 2 605 2
521 0 626 3 742 18 231 30 451 100 574 183 28 18 52 32 54 30 2 -2 -3 -17 -11
-33z"/>
</g>
</svg>
